<svg width="145" height="37" viewBox="0 0 145 37" fill="none" xmlns="http://www.w3.org/2000/svg">
<path d="M23.072 7.536L15.104 30H8.256L0.288 7.536H6.112L11.68 24.496L17.28 7.536H23.072ZM29.071 10.288C28.111 10.288 27.3217 10.0107 26.703 9.456C26.1057 8.88 25.807 8.176 25.807 7.344C25.807 6.49067 26.1057 5.78667 26.703 5.232C27.3217 4.656 28.111 4.368 29.071 4.368C30.0097 4.368 30.7777 4.656 31.375 5.232C31.9937 5.78667 32.303 6.49067 32.303 7.344C32.303 8.176 31.9937 8.88 31.375 9.456C30.7777 10.0107 30.0097 10.288 29.071 10.288ZM31.791 12.144V30H26.319V12.144H31.791ZM46.6685 25.36V30H43.8845C41.9005 30 40.3538 29.52 39.2445 28.56C38.1352 27.5787 37.5805 25.9893 37.5805 23.792V16.688H35.4045V12.144H37.5805V7.792H43.0525V12.144H46.6365V16.688H43.0525V23.856C43.0525 24.3893 43.1805 24.7733 43.4365 25.008C43.6925 25.2427 44.1192 25.36 44.7165 25.36H46.6685ZM60.6285 25.36V30H57.8445C55.8605 30 54.3138 29.52 53.2045 28.56C52.0952 27.5787 51.5405 25.9893 51.5405 23.792V16.688H49.3645V12.144H51.5405V7.792H57.0125V12.144H60.5965V16.688H57.0125V23.856C57.0125 24.3893 57.1405 24.7733 57.3965 25.008C57.6525 25.2427 58.0792 25.36 58.6765 25.36H60.6285ZM72.7645 30.256C71.0152 30.256 69.4365 29.8827 68.0285 29.136C66.6418 28.3893 65.5432 27.3227 64.7325 25.936C63.9432 24.5493 63.5485 22.928 63.5485 21.072C63.5485 19.2373 63.9538 17.6267 64.7645 16.24C65.5752 14.832 66.6845 13.7547 68.0925 13.008C69.5005 12.2613 71.0792 11.888 72.8285 11.888C74.5778 11.888 76.1565 12.2613 77.5645 13.008C78.9725 13.7547 80.0818 14.832 80.8925 16.24C81.7032 17.6267 82.1085 19.2373 82.1085 21.072C82.1085 22.9067 81.6925 24.528 80.8605 25.936C80.0498 27.3227 78.9298 28.3893 77.5005 29.136C76.0925 29.8827 74.5138 30.256 72.7645 30.256ZM72.7645 25.52C73.8098 25.52 74.6952 25.136 75.4205 24.368C76.1672 23.6 76.5405 22.5013 76.5405 21.072C76.5405 19.6427 76.1778 18.544 75.4525 17.776C74.7485 17.008 73.8738 16.624 72.8285 16.624C71.7618 16.624 70.8765 17.008 70.1725 17.776C69.4685 18.5227 69.1165 19.6213 69.1165 21.072C69.1165 22.5013 69.4578 23.6 70.1405 24.368C70.8445 25.136 71.7192 25.52 72.7645 25.52ZM91.4435 15.12C92.0835 14.1387 92.8835 13.3707 93.8435 12.816C94.8035 12.24 95.8702 11.952 97.0435 11.952V17.744H95.5395C94.1742 17.744 93.1502 18.0427 92.4675 18.64C91.7848 19.216 91.4435 20.24 91.4435 21.712V30H85.9715V12.144H91.4435V15.12Z" fill="white"/>
<path d="M109.288 16.56C110.334 16.5173 111.102 16.2933 111.592 15.888C112.083 15.4613 112.328 14.864 112.328 14.096C112.328 13.52 112.222 12.3787 112.008 10.672C111.987 10.5013 111.923 9.95733 111.816 9.04C111.71 8.10133 111.656 7.25867 111.656 6.512C111.656 4.69866 112.211 3.29066 113.32 2.288C114.43 1.264 115.912 0.751999 117.768 0.751999H120.072V5.232H118.824C118.142 5.232 117.651 5.38133 117.352 5.68C117.054 5.97867 116.904 6.43733 116.904 7.056C116.904 7.52533 116.99 8.592 117.16 10.256C117.352 12.3253 117.448 13.68 117.448 14.32C117.448 15.4933 117.16 16.464 116.584 17.232C116.03 18 115.176 18.4907 114.024 18.704V18.768C115.176 19.0027 116.03 19.504 116.584 20.272C117.16 21.0187 117.448 21.9893 117.448 23.184C117.448 23.824 117.352 25.1787 117.16 27.248C116.99 28.8693 116.904 29.9253 116.904 30.416C116.904 31.0347 117.054 31.4933 117.352 31.792C117.651 32.112 118.142 32.272 118.824 32.272H120.072V36.752H117.768C115.912 36.752 114.43 36.24 113.32 35.216C112.211 34.2133 111.656 32.7947 111.656 30.96C111.656 30.2133 111.71 29.3813 111.816 28.464C111.923 27.5253 111.987 26.9707 112.008 26.8C112.222 25.0933 112.328 23.952 112.328 23.376C112.328 22.6507 112.083 22.0747 111.592 21.648C111.102 21.2 110.334 20.9547 109.288 20.912V16.56ZM144.102 20.912C143.057 20.9547 142.289 21.2 141.798 21.648C141.308 22.0747 141.062 22.6507 141.062 23.376C141.062 23.952 141.169 25.0933 141.382 26.8C141.404 26.9707 141.468 27.5253 141.574 28.464C141.681 29.3813 141.734 30.2133 141.734 30.96C141.734 32.7947 141.18 34.2133 140.07 35.216C138.961 36.24 137.478 36.752 135.622 36.752H133.318V32.272H134.566C135.249 32.272 135.74 32.112 136.038 31.792C136.337 31.4933 136.486 31.0347 136.486 30.416C136.486 29.9253 136.401 28.8693 136.23 27.248C136.038 25.1787 135.942 23.824 135.942 23.184C135.942 21.9893 136.22 21.0187 136.774 20.272C137.35 19.504 138.214 19.0027 139.366 18.768V18.704C138.214 18.4907 137.35 18 136.774 17.232C136.22 16.464 135.942 15.4933 135.942 14.32C135.942 13.68 136.038 12.3253 136.23 10.256C136.401 8.592 136.486 7.52533 136.486 7.056C136.486 6.43733 136.337 5.97867 136.038 5.68C135.74 5.38133 135.249 5.232 134.566 5.232H133.318V0.751999H135.622C137.478 0.751999 138.961 1.264 140.07 2.288C141.18 3.29066 141.734 4.69866 141.734 6.512C141.734 7.25867 141.681 8.10133 141.574 9.04C141.468 9.95733 141.404 10.5013 141.382 10.672C141.169 12.3787 141.062 13.52 141.062 14.096C141.062 14.864 141.308 15.4613 141.798 15.888C142.289 16.2933 143.057 16.5173 144.102 16.56V20.912Z" fill="#653DF5"/>
</svg>
